<?xml version="1.0" encoding="UTF-8"?>
<svg id="fulllogo_m" xmlns="http://www.w3.org/2000/svg" viewBox="0 0 850.39 283.46">
  <defs>
    <style>
      .cls-1 {
        fill: #fff;
      }

      .cls-2 {
        opacity: .91;
      }
    </style>
  </defs>
  <path class="cls-1" d="M234.15,82.68H99.77v134.38h134.38V82.68ZM146.54,91.83l40.88-.02-43.29,10.21,2.41-10.19ZM119.14,207.92l5.63-23.89h23.94v-47.86h-12.64l4.16-17.66,50.65-11.93-.02,77.44h18.26l5.63,23.89h-95.62Z"/>
  <g class="cls-2">
    <path class="cls-1" d="M252.44,160.75h.05c0-8.62,6.99-15.61,15.61-15.61s15.61,6.99,15.61,15.61h.03c0-.32,0-.64.02-.96v48.12h9.14v-47.16h.21c0-8.52,6.91-15.42,15.42-15.42s15.42,6.91,15.42,15.42v19.42c.08-.06.16-.12.23-.19v27.93h9.15v-47.16c0-5.93-2.08-11.38-5.56-15.64-1.07-1.32-2.27-2.52-3.59-3.59-3.59-2.93-8.03-4.87-12.89-5.41h-5.52c-4.85.53-9.27,2.47-12.87,5.39-1.32,1.08-2.53,2.28-3.61,3.61-.34.41-.66.85-.97,1.28-.32-.44-.64-.87-.98-1.28-1.07-1.32-2.27-2.52-3.58-3.58-3.6-2.94-8.03-4.88-12.9-5.41h-5.52c-4.86.53-9.3,2.48-12.89,5.42-1.32,1.07-2.51,2.26-3.57,3.58-3.49,4.27-5.57,9.71-5.57,15.65v47.16h9.14v-47.16Z"/>
    <path class="cls-1" d="M351.66,145.11h17.56c14.76,0,26.73,11.97,26.73,26.73s-11.97,26.73-26.73,26.73c-2.01,0-3.98-.23-5.87-.65l-2.1,8.91c2.56.58,5.23.89,7.96.89,10.62,0,20.16-4.62,26.73-11.95,5.69-6.35,9.14-14.73,9.14-23.93s-3.46-17.59-9.14-23.94c-.89-.98-1.81-1.91-2.8-2.79-5.58-5-12.73-8.27-20.62-9h-30.02v101.34h9.15v-92.34Z"/>
    <path class="cls-1" d="M445.53,207.92c8.65,0,16.48-3.51,22.14-9.18,5.65-5.67,9.15-13.48,9.15-22.12v-40.51h-9.15v38.12c.08.79.13,1.58.13,2.39s-.05,1.6-.13,2.39c-1.19,11.18-10.65,19.88-22.14,19.88s-20.95-8.71-22.14-19.88c-.08-.79-.13-1.58-.13-2.39s.05-1.6.13-2.39v-38.12h-9.15v40.51c0,8.64,3.5,16.45,9.15,22.12,5.67,5.67,13.49,9.18,22.14,9.18"/>
    <path class="cls-1" d="M647.59,207.92c8.65,0,16.48-3.51,22.14-9.18,5.65-5.67,9.15-13.48,9.15-22.12v-40.51h-9.15v38.12c.08.79.13,1.58.13,2.39s-.05,1.6-.13,2.39c-1.19,11.18-10.65,19.88-22.14,19.88s-20.95-8.71-22.14-19.88c-.08-.79-.13-1.58-.13-2.39s.05-1.6.13-2.39v-38.12h-9.15v40.51c0,8.64,3.5,16.45,9.15,22.12,5.67,5.67,13.49,9.18,22.14,9.18"/>
    <path class="cls-1" d="M741.46,207.92h4.58l4.57-19.4v-21.08h-53.44v-11.71h.01c.28-5.81,5.01-10.47,10.87-10.62.1,0,.19,0,.28,0s.19,0,.29,0h41.98v-9h-44.8c-3.16.39-6.1,1.51-8.64,3.19-2.3,1.52-4.28,3.5-5.81,5.81-2.11,3.2-3.34,7.03-3.34,11.16v20.32h53.44v31.33Z"/>
    <polygon class="cls-1" points="607.15 207.82 607.15 198.67 557.14 198.67 598 154.89 607.13 145.11 607.15 145.09 607.15 136.11 544.57 136.11 544.57 145.11 594.61 145.11 553.71 188.94 544.62 198.67 544.57 198.73 544.57 198.76 546.7 207.82 607.15 207.82"/>
    <polygon class="cls-1" points="578.18 246.59 844.68 246.59 844.68 255.74 573.12 255.74 567.37 246.59 561.64 237.44 557.71 231.18 557.71 231.17 557.69 231.17 548.56 228.86 539.02 226.45 535.86 225.65 531.87 224.64 531.82 224.43 531.05 221.21 530.08 217.06 527.92 207.92 513.13 145.11 511.01 136.11 510.97 135.95 495.12 68.66 495.12 255.74 5.72 255.74 5.72 246.59 485.97 246.59 485.97 29.83 487.01 29.58 494.88 27.73 496.97 36.62 520.37 135.95 520.41 136.11 522.53 145.11 537.33 207.92 538.89 214.58 539.47 217.06 539.18 217.06 539.5 217.13 547.61 219.19 548.56 219.43 557.71 221.74 562.58 222.97 563.48 223.19 570.53 234.41 572.43 237.44 578.18 246.59"/>
  </g>
</svg>